<svg width="24" height="24" viewBox="0 0 24 24" fill="none" xmlns="http://www.w3.org/2000/svg">
<path d="M17.916 5.97C18.8701 6.94962 19.5655 8.1512 19.9395 9.4665H22.5V13.968H19.9395C19.5659 15.2844 18.8705 16.487 17.916 17.4675L19.1985 19.6875L15.3015 21.9375L14.022 19.7175C12.6953 20.0521 11.3062 20.0521 9.9795 19.7175L8.6985 21.9375L4.8015 19.6875L6.084 17.4675C5.12949 16.487 4.43408 15.2844 4.0605 13.968H1.5V9.468H4.0605C4.43408 8.15163 5.12949 6.94897 6.084 5.9685L4.8 3.75L8.6955 1.5H8.7L9.981 3.717C11.3077 3.38238 12.6968 3.38238 14.0235 3.717L15.3 1.5H15.303L19.2 3.75L17.9175 5.97H17.916ZM16.5 11.718C16.5 10.5245 16.0259 9.37993 15.182 8.53602C14.3381 7.69211 13.1935 7.218 12 7.218C10.8065 7.218 9.66193 7.69211 8.81802 8.53602C7.97411 9.37993 7.5 10.5245 7.5 11.718C7.5 12.9115 7.97411 14.0561 8.81802 14.9C9.66193 15.7439 10.8065 16.218 12 16.218C13.1935 16.218 14.3381 15.7439 15.182 14.9C16.0259 14.0561 16.5 12.9115 16.5 11.718Z" fill="#4C8EFF"/>
</svg>
