<svg width="24" height="24" viewBox="0 0 24 24" fill="none" xmlns="http://www.w3.org/2000/svg">
<path d="M3.29594 20.6021L9.65994 14.2381M17.6739 11.4081L15.7689 17.1241C15.7384 17.2155 15.6863 17.2982 15.617 17.3652C15.5477 17.4322 15.4633 17.4816 15.3709 17.5091L3.69294 20.9811C3.58773 21.0123 3.47597 21.0141 3.36981 20.9862C3.26365 20.9584 3.16717 20.9019 3.09087 20.823C3.01456 20.7442 2.96135 20.6459 2.93703 20.5388C2.91272 20.4318 2.91822 20.3202 2.95294 20.2161L6.74494 8.84206C6.77212 8.76039 6.81655 8.68553 6.87521 8.62255C6.93388 8.55957 7.0054 8.50995 7.08494 8.47706L12.4719 6.25906C12.5815 6.21383 12.7019 6.20204 12.8181 6.22517C12.9343 6.24831 13.0411 6.30533 13.1249 6.38906L17.5289 10.7941C17.6077 10.8728 17.663 10.972 17.6887 11.0805C17.7143 11.1889 17.7092 11.3023 17.6739 11.4081Z" stroke="#4C8EFF" stroke-width="1.5" stroke-linecap="round" stroke-linejoin="round"/>
<path d="M18.4029 3.18206L20.7669 5.54606C20.9446 5.71602 21.0865 5.91975 21.1843 6.1453C21.2822 6.37085 21.334 6.61367 21.3367 6.85951C21.3394 7.10535 21.293 7.34926 21.2001 7.57692C21.1073 7.80457 20.9699 8.01139 20.7961 8.18524C20.6223 8.35909 20.4154 8.49646 20.1878 8.58928C19.9601 8.68211 19.7162 8.72853 19.4704 8.72581C19.2245 8.72309 18.9817 8.67129 18.7562 8.57345C18.5306 8.47562 18.3269 8.33371 18.1569 8.15606L15.7919 5.79206C15.4584 5.44341 15.2746 4.978 15.2799 4.49551C15.2852 4.01302 15.4793 3.5518 15.8205 3.2106C16.1617 2.86941 16.6229 2.67537 17.1054 2.67003C17.5879 2.6647 18.0543 2.84849 18.4029 3.18206Z" fill="#4C8EFF" stroke="#4C8EFF" stroke-width="1.5" stroke-linecap="round" stroke-linejoin="round"/>
<path d="M11.7808 12.1161C11.6425 11.9729 11.4769 11.8586 11.2939 11.78C11.1109 11.7014 10.9141 11.66 10.7149 11.6583C10.5158 11.6565 10.3183 11.6945 10.1339 11.7699C9.94956 11.8453 9.78208 11.9567 9.64124 12.0975C9.50041 12.2384 9.38903 12.4059 9.3136 12.5902C9.23818 12.7745 9.20023 12.9721 9.20196 13.1712C9.20369 13.3704 9.24507 13.5672 9.32368 13.7502C9.4023 13.9332 9.51657 14.0988 9.65984 14.2371C9.94274 14.5104 10.3216 14.6616 10.7149 14.6581C11.1082 14.6547 11.4845 14.497 11.7626 14.2189C12.0407 13.9408 12.1984 13.5645 12.2018 13.1712C12.2053 12.7779 12.0541 12.399 11.7808 12.1161Z" stroke="#4C8EFF" stroke-width="1.5" stroke-linecap="round" stroke-linejoin="round"/>
</svg>
