<svg width="28" height="21" viewBox="0 0 28 21" fill="none" xmlns="http://www.w3.org/2000/svg">
<path d="M2.76247 9.2314H3.80735C4.16995 9.2314 4.46099 9.1884 4.68046 9.10239C4.89993 9.00683 5.10032 8.84915 5.28162 8.62935L12.1091 0.888738C12.2999 0.640273 12.5003 0.46826 12.7102 0.372697C12.9202 0.277133 13.1778 0.229352 13.4832 0.229352H15.8305L8.01546 9.07372C7.82462 9.30307 7.63855 9.4942 7.45724 9.6471C7.28549 9.79044 7.09941 9.9099 6.89902 10.0055C7.15666 10.0915 7.39045 10.2205 7.60038 10.3925C7.81031 10.5549 8.01546 10.77 8.21585 11.0375L16.3744 20.7706H13.9698C13.7885 20.7706 13.6311 20.7611 13.4975 20.742C13.3734 20.7133 13.2637 20.6751 13.1683 20.6273C13.0728 20.57 12.987 20.5079 12.9106 20.441C12.8438 20.3645 12.777 20.2785 12.7102 20.1829L5.63945 12.0266C5.44861 11.7877 5.24345 11.6205 5.02398 11.5249C4.80451 11.4198 4.47053 11.3672 4.02205 11.3672H2.76247V20.7706H0V0.229352H2.76247V9.2314Z" fill="#4C8EFF"/>
<path d="M26.8693 3.44027C26.7834 3.58362 26.6879 3.69352 26.583 3.76997C26.4876 3.83686 26.3683 3.87031 26.2251 3.87031C26.0629 3.87031 25.8721 3.78908 25.6526 3.62662C25.4331 3.46416 25.1564 3.28737 24.8224 3.09625C24.498 2.89556 24.102 2.71399 23.6344 2.55154C23.1764 2.38908 22.6182 2.30785 21.9598 2.30785C21.3395 2.30785 20.7909 2.39386 20.3137 2.56587C19.8462 2.72833 19.4502 2.9529 19.1257 3.23959C18.8108 3.52628 18.5723 3.86553 18.4101 4.25734C18.2479 4.63959 18.1667 5.05529 18.1667 5.50444C18.1667 6.07782 18.3051 6.55563 18.5818 6.93788C18.8681 7.31058 19.2402 7.63072 19.6983 7.89829C20.1658 8.16587 20.6907 8.4 21.2727 8.60068C21.8644 8.79181 22.4655 8.99249 23.0762 9.20273C23.6965 9.41297 24.2976 9.65188 24.8797 9.91945C25.4713 10.1775 25.9961 10.5072 26.4542 10.9085C26.9217 11.3099 27.2939 11.802 27.5706 12.385C27.8569 12.9679 28 13.6846 28 14.5352C28 15.4334 27.8473 16.2792 27.542 17.0724C27.2366 17.856 26.7881 18.5392 26.1965 19.1222C25.6144 19.7051 24.894 20.1638 24.0352 20.4983C23.186 20.8328 22.2174 21 21.1296 21C19.7937 21 18.5818 20.7611 17.494 20.2833C16.4062 19.7959 15.4758 19.1413 14.7029 18.3195L15.5045 17.0007C15.5808 16.8956 15.6715 16.8096 15.7764 16.7427C15.8909 16.6662 16.015 16.628 16.1486 16.628C16.2726 16.628 16.411 16.6805 16.5637 16.7857C16.7259 16.8812 16.9072 17.0055 17.1076 17.1584C17.3079 17.3113 17.537 17.4785 17.7946 17.6601C18.0522 17.8416 18.3433 18.0089 18.6677 18.1618C19.0017 18.3147 19.3786 18.4437 19.7985 18.5488C20.2183 18.6444 20.6907 18.6922 21.2155 18.6922C21.8739 18.6922 22.4607 18.6014 22.976 18.4198C23.4913 18.2382 23.9255 17.985 24.2785 17.6601C24.6411 17.3256 24.9179 16.929 25.1087 16.4703C25.2996 16.0116 25.395 15.5003 25.395 14.9365C25.395 14.3154 25.2518 13.8089 24.9656 13.4171C24.6889 13.0157 24.3215 12.6812 23.8634 12.4137C23.4054 12.1461 22.8806 11.9215 22.289 11.7399C21.6974 11.5488 21.0962 11.3577 20.4855 11.1666C19.8748 10.9659 19.2736 10.7365 18.682 10.4785C18.0904 10.2205 17.5656 9.88601 17.1076 9.47509C16.6495 9.06416 16.2774 8.5529 15.9911 7.9413C15.7144 7.32014 15.576 6.55563 15.576 5.64778C15.576 4.9215 15.7144 4.21911 15.9911 3.54062C16.2774 2.86212 16.6877 2.26007 17.2221 1.73447C17.766 1.20887 18.4292 0.788397 19.2116 0.473039C20.0036 0.15768 20.9101 0 21.9312 0C23.0762 0 24.1163 0.18157 25.0515 0.544711C25.9961 0.907851 26.8263 1.43345 27.542 2.1215L26.8693 3.44027Z" fill="#4C8EFF"/>
</svg>
