<svg width="24" height="24" viewBox="0 0 24 24" fill="none" xmlns="http://www.w3.org/2000/svg">
<path d="M12 11C14.5 11 16.625 10.6083 18.375 9.825C20.125 9.04167 21 8.1 21 7C21 5.9 20.125 4.95833 18.375 4.175C16.625 3.39167 14.5 3 12 3C9.5 3 7.375 3.39167 5.625 4.175C3.875 4.95833 3 5.9 3 7C3 8.1 3.875 9.04167 5.625 9.825C7.375 10.6083 9.5 11 12 11ZM12 13.5C12.6833 13.5 13.5377 13.429 14.563 13.287C15.5883 13.145 16.5757 12.916 17.525 12.6C18.4743 12.284 19.291 11.8717 19.975 11.363C20.659 10.8543 21.0007 10.2333 21 9.5V12C21 12.7333 20.6583 13.3543 19.975 13.863C19.2917 14.3717 18.475 14.784 17.525 15.1C16.575 15.416 15.5877 15.6453 14.563 15.788C13.5383 15.9307 12.684 16.0013 12 16C11.316 15.9987 10.462 15.9277 9.438 15.787C8.414 15.6463 7.42633 15.4173 6.475 15.1C5.52367 14.7827 4.707 14.3703 4.025 13.863C3.343 13.3557 3.00133 12.7347 3 12V9.5C3 10.2333 3.34167 10.8543 4.025 11.363C4.70833 11.8717 5.525 12.284 6.475 12.6C7.425 12.916 8.41267 13.1453 9.438 13.288C10.4633 13.4307 11.3173 13.5013 12 13.5ZM12 18.5C12.6833 18.5 13.5377 18.429 14.563 18.287C15.5883 18.145 16.5757 17.916 17.525 17.6C18.4743 17.284 19.291 16.8717 19.975 16.363C20.659 15.8543 21.0007 15.2333 21 14.5V17C21 17.7333 20.6583 18.3543 19.975 18.863C19.2917 19.3717 18.475 19.784 17.525 20.1C16.575 20.416 15.5877 20.6453 14.563 20.788C13.5383 20.9307 12.684 21.0013 12 21C11.316 20.9987 10.462 20.9277 9.438 20.787C8.414 20.6463 7.42633 20.4173 6.475 20.1C5.52367 19.7827 4.707 19.3703 4.025 18.863C3.343 18.3557 3.00133 17.7347 3 17V14.5C3 15.2333 3.34167 15.8543 4.025 16.363C4.70833 16.8717 5.525 17.284 6.475 17.6C7.425 17.916 8.41267 18.1453 9.438 18.288C10.4633 18.4307 11.3173 18.5013 12 18.5Z" fill="#4C8EFF"/>
</svg>
