<svg width="17" height="17" viewBox="0 0 17 17" fill="none" xmlns="http://www.w3.org/2000/svg">
<path d="M8.50005 1.41669C7.56985 1.41669 6.64876 1.5999 5.78936 1.95588C4.92997 2.31185 4.14911 2.8336 3.49136 3.49136C2.16297 4.81974 1.41669 6.62142 1.41669 8.50005C1.41669 11.6309 3.44961 14.2872 6.26171 15.2292C6.61587 15.2859 6.72921 15.0663 6.72921 14.8751V13.678C4.76712 14.103 4.3492 12.7288 4.3492 12.7288C4.02336 11.9071 3.56295 11.6876 3.56295 11.6876C2.91836 11.2484 3.61253 11.2626 3.61253 11.2626C4.32087 11.3121 4.69628 11.9921 4.69628 11.9921C5.31254 13.0688 6.35379 12.7501 6.75754 12.5801C6.82129 12.1196 7.00546 11.808 7.20379 11.6309C5.63129 11.4538 3.98086 10.8446 3.98086 8.14588C3.98086 7.35963 4.25003 6.72921 4.71045 6.22629C4.63962 6.0492 4.3917 5.31254 4.78128 4.35628C4.78128 4.35628 5.37629 4.16503 6.72921 5.07878C7.28879 4.92295 7.89796 4.84503 8.50005 4.84503C9.10213 4.84503 9.7113 4.92295 10.2709 5.07878C11.6238 4.16503 12.2188 4.35628 12.2188 4.35628C12.6084 5.31254 12.3605 6.0492 12.2896 6.22629C12.7501 6.72921 13.0192 7.35963 13.0192 8.14588C13.0192 10.8517 11.3617 11.4467 9.78214 11.6238C10.0371 11.8434 10.2709 12.2755 10.2709 12.9342V14.8751C10.2709 15.0663 10.3842 15.293 10.7455 15.2292C13.5576 14.2801 15.5834 11.6309 15.5834 8.50005C15.5834 7.56985 15.4002 6.64876 15.0442 5.78936C14.6882 4.92997 14.1665 4.14911 13.5087 3.49136C12.851 2.8336 12.0701 2.31185 11.2107 1.95588C10.3513 1.5999 9.43025 1.41669 8.50005 1.41669Z" fill="white"/>
</svg>
